<svg width="27" height="27" viewBox="0 0 27 27" fill="none" xmlns="http://www.w3.org/2000/svg">
<path d="M10.3051 12.2287C10.1926 12.2175 10.0576 12.2175 9.93382 12.2287C7.25632 12.1387 5.13007 9.945 5.13007 7.245C5.13007 4.48875 7.35757 2.25 10.1251 2.25C12.8814 2.25 15.1201 4.48875 15.1201 7.245C15.1089 9.945 12.9826 12.1387 10.3051 12.2287Z" stroke="#292D32" stroke-width="1.984" stroke-linecap="round" stroke-linejoin="round"/>
<path d="M18.4612 4.5C20.6437 4.5 22.3987 6.26625 22.3987 8.4375C22.3987 10.5638 20.7112 12.2963 18.6074 12.375C18.5174 12.3638 18.4162 12.3638 18.3149 12.375" stroke="#292D32" stroke-width="1.984" stroke-linecap="round" stroke-linejoin="round"/>
<path d="M4.67994 16.38C1.95744 18.2025 1.95744 21.1725 4.67994 22.9837C7.77369 25.0537 12.8475 25.0537 15.9412 22.9837C18.6637 21.1612 18.6637 18.1913 15.9412 16.38C12.8587 14.3213 7.78494 14.3213 4.67994 16.38Z" stroke="#292D32" stroke-width="1.984" stroke-linecap="round" stroke-linejoin="round"/>
<path d="M20.6326 22.5C21.4426 22.3312 22.2076 22.005 22.8376 21.5212C24.5926 20.205 24.5926 18.0337 22.8376 16.7175C22.2188 16.245 21.4651 15.93 20.6663 15.75" stroke="#292D32" stroke-width="1.984" stroke-linecap="round" stroke-linejoin="round"/>
</svg>
