<svg width="27" height="27" viewBox="0 0 27 27" fill="none" xmlns="http://www.w3.org/2000/svg">
<g clip-path="url(#clip0_76_439)">
<path d="M6.52499 21.0487C8.00995 21.0487 9.21374 19.8449 9.21374 18.36C9.21374 16.875 8.00995 15.6712 6.52499 15.6712C5.04004 15.6712 3.83624 16.875 3.83624 18.36C3.83624 19.8449 5.04004 21.0487 6.52499 21.0487Z" stroke="#020202" stroke-width="1.792" stroke-miterlimit="10"/>
<path d="M1.6875 26.415V25.875C1.6875 24.592 2.19716 23.3616 3.10437 22.4544C4.01158 21.5472 5.24202 21.0375 6.525 21.0375C7.80603 21.0405 9.03358 21.5515 9.93836 22.4583C10.8431 23.3652 11.3513 24.594 11.3513 25.875V26.415" stroke="#020202" stroke-width="1.792" stroke-miterlimit="10"/>
<path d="M20.475 7.08749C21.96 7.08749 23.1638 5.8837 23.1638 4.39874C23.1638 2.91379 21.96 1.70999 20.475 1.70999C18.99 1.70999 17.7863 2.91379 17.7863 4.39874C17.7863 5.8837 18.99 7.08749 20.475 7.08749Z" stroke="#020202" stroke-width="1.792" stroke-miterlimit="10"/>
<path d="M15.6487 12.4537V11.9137C15.6487 10.6337 16.1572 9.40615 17.0623 8.50105C17.9674 7.59595 19.195 7.08748 20.475 7.08748C21.1097 7.086 21.7385 7.20974 22.3254 7.45162C22.9122 7.6935 23.4456 8.04876 23.8949 8.49707C24.3443 8.94537 24.7008 9.47792 24.944 10.0642C25.1873 10.6505 25.3125 11.279 25.3125 11.9137V12.4537" stroke="#020202" stroke-width="1.792" stroke-miterlimit="10"/>
<path d="M17.6625 17.685L21.015 14.3438L24.3675 17.685" stroke="#020202" stroke-width="1.792" stroke-miterlimit="10"/>
<path d="M21.015 14.625V17.8425C21.0091 19.5386 20.3351 21.164 19.139 22.3664C17.9428 23.5689 16.321 24.2515 14.625 24.2662" stroke="#020202" stroke-width="1.792" stroke-miterlimit="10"/>
<path d="M9.33751 9.35999L5.98501 12.7125L2.63251 9.35999" stroke="#020202" stroke-width="1.792" stroke-miterlimit="10"/>
<path d="M5.98499 12.4537V9.22499C5.98498 8.37898 6.1518 7.54128 6.47589 6.75982C6.79999 5.97835 7.27499 5.26847 7.87373 4.67077C8.47247 4.07308 9.18318 3.59932 9.96521 3.27659C10.7472 2.95386 11.5852 2.78851 12.4312 2.78999" stroke="#020202" stroke-width="1.792" stroke-miterlimit="10"/>
</g>
<defs>
<clipPath id="clip0_76_439">
<rect width="27" height="27" fill="white"/>
</clipPath>
</defs>
</svg>
