<svg width="27" height="27" viewBox="0 0 27 27" fill="none" xmlns="http://www.w3.org/2000/svg">
<path d="M13.5 13.5C13.5 12.8787 12.9963 12.375 12.375 12.375H5.625C5.00366 12.375 4.5 12.8787 4.5 13.5V21.375C4.5 21.9963 5.00366 22.5 5.625 22.5H12.375C12.9963 22.5 13.5 21.9963 13.5 21.375V13.5Z" stroke="#0A66CD" stroke-width="1.984" stroke-linecap="round"/>
<path d="M22.5 5.625C22.5 5.00368 21.9963 4.5 21.375 4.5H18C17.3787 4.5 16.875 5.00368 16.875 5.625V21.375C16.875 21.9963 17.3787 22.5 18 22.5H21.375C21.9963 22.5 22.5 21.9963 22.5 21.375V5.625Z" stroke="#0A66CD" stroke-width="1.984" stroke-linecap="round"/>
<path d="M13.5 5.625C13.5 5.00368 12.9963 4.5 12.375 4.5H5.625C5.00366 4.5 4.5 5.00368 4.5 5.625V7.875C4.5 8.49632 5.00366 9 5.625 9H12.375C12.9963 9 13.5 8.49632 13.5 7.875V5.625Z" stroke="#0A66CD" stroke-width="1.984" stroke-linecap="round"/>
</svg>
