<svg width="24" height="24" viewBox="0 0 24 24" fill="none" xmlns="http://www.w3.org/2000/svg">
<path d="M4.28599 3.42869H18.0002V10.2858H19.7144V1.71423H2.57153V22.2858H12.0002V20.5713H4.28599V3.42869Z" fill="#0F1F3C" stroke="black" stroke-width="0.00064"/>
<path d="M16.7142 11.2856L12 13.643V15.7111C12 18.296 13.4604 20.659 15.7723 21.8149L16.7142 22.2858L17.6562 21.8149C19.968 20.659 21.4284 18.296 21.4284 15.7111V13.643L16.7142 11.2856ZM19.7142 15.7109C19.7142 17.659 18.6319 19.4103 16.8895 20.2814L16.7142 20.3691L16.5389 20.2814C14.7966 19.4103 13.7142 17.6588 13.7142 15.7109V14.7024L16.7142 13.2024L19.7142 14.7024V15.7109Z" fill="#0F1F3C" stroke="black" stroke-width="0.00064"/>
<path d="M15.4188 16.0127L14.5673 16.9762L16.7529 18.9082L19.4231 15.8358L18.453 14.992L16.6334 17.0859L15.4188 16.0127ZM6 6H16.2858V7.71422H6V6ZM6 10.2858H12.8571V12H6V10.2858ZM6 14.5713H9.42867V16.2855H6V14.5713Z" fill="#0F1F3C" stroke="black" stroke-width="0.00064"/>
</svg>
