<svg width="31" height="31" viewBox="0 0 31 31" fill="none" xmlns="http://www.w3.org/2000/svg">
<path d="M10.7877 26.1458C11.8741 27.5268 13.5808 28.4168 15.5 28.4168C17.4191 28.4168 19.1258 27.5268 20.2122 26.1458C17.0841 26.5697 13.9159 26.5697 10.7877 26.1458Z" fill="#9A9A9A"/>
<path d="M24.2176 11.625V12.5345C24.2176 13.626 24.5291 14.693 25.1128 15.6011L26.5432 17.8266C27.8499 19.8593 26.8525 22.6222 24.5799 23.265C18.6353 24.9465 12.3648 24.9465 6.42005 23.265C4.14761 22.6222 3.15014 19.8593 4.45672 17.8266L5.88716 15.6011C6.47089 14.693 6.78237 13.626 6.78237 12.5345V11.625C6.78237 6.63147 10.6854 2.58337 15.5 2.58337C20.3146 2.58337 24.2176 6.63147 24.2176 11.625Z" fill="#9A9A9A"/>
</svg>
