<svg width="27" height="27" viewBox="0 0 27 27" fill="none" xmlns="http://www.w3.org/2000/svg">
<path d="M24.3 12.7657C24.3 10.6297 23.6666 8.54158 22.4799 6.76553C21.2932 4.98949 19.6065 3.60521 17.6331 2.78779C15.6596 1.97036 13.488 1.75651 11.393 2.17323C9.29802 2.58995 7.37369 3.61859 5.86329 5.12899C4.35288 6.6394 3.32425 8.56372 2.90752 10.6587C2.49081 12.7537 2.70472 14.9253 3.52214 16.8987C4.33957 18.8722 5.72385 20.5589 7.4999 21.7456C9.27595 22.9323 11.364 23.5657 13.5 23.5657" stroke="black" stroke-width="1.984" stroke-linecap="round" stroke-linejoin="round"/>
<path d="M2.70001 12.7657H24.3" stroke="black" stroke-width="1.984" stroke-linecap="round" stroke-linejoin="round"/>
<path d="M13.5 23.5657C11.4156 23.5657 9.72003 18.7273 9.72003 12.7657C9.72003 6.8041 11.4156 1.9657 13.5 1.9657C15.5844 1.9657 17.28 6.8041 17.28 12.7657" stroke="black" stroke-width="1.984" stroke-linecap="round" stroke-linejoin="round"/>
<path d="M20.3786 23.4254C22.4663 23.4254 24.1586 21.733 24.1586 19.6454C24.1586 17.5577 22.4663 15.8654 20.3786 15.8654C18.291 15.8654 16.5986 17.5577 16.5986 19.6454C16.5986 21.733 18.291 23.4254 20.3786 23.4254Z" stroke="black" stroke-width="1.984" stroke-linecap="round" stroke-linejoin="round"/>
<path d="M25.3798 24.6459L23.047 22.3239" stroke="black" stroke-width="1.984" stroke-linecap="round" stroke-linejoin="round"/>
</svg>
