<svg width="27" height="28" viewBox="0 0 27 28" fill="none" xmlns="http://www.w3.org/2000/svg">
<g clip-path="url(#clip0_76_432)">
<path d="M11.5324 1.05688C12.1257 0.697349 12.8062 0.507263 13.5 0.507263C14.1938 0.507263 14.8743 0.697349 15.4676 1.05688L24.327 6.4265C24.8853 6.76479 25.3469 7.24129 25.6674 7.81002C25.9878 8.37874 26.1562 9.02047 26.1563 9.67325V10.625C26.1563 10.9607 26.0229 11.2826 25.7856 11.5199C25.5482 11.7573 25.2263 11.8906 24.8906 11.8906C24.555 11.8906 24.233 11.7573 23.9957 11.5199C23.7583 11.2826 23.625 10.9607 23.625 10.625V9.67325C23.6252 9.45552 23.5693 9.24142 23.4626 9.05163C23.3558 8.86185 23.202 8.70281 23.0158 8.58988L14.1564 3.22194C13.9585 3.10188 13.7315 3.03839 13.5 3.03839C13.2685 3.03839 13.0415 3.10188 12.8436 3.22194L3.98419 8.58988C3.79803 8.70281 3.64416 8.86185 3.53745 9.05163C3.43073 9.24142 3.37478 9.45552 3.375 9.67325V18.3267C3.37478 18.5445 3.43073 18.7586 3.53745 18.9484C3.64416 19.1382 3.79803 19.2972 3.98419 19.4101L10.7814 23.5276C10.9236 23.6138 11.0474 23.7272 11.1457 23.8612C11.2441 23.9953 11.3151 24.1474 11.3546 24.3089C11.3942 24.4703 11.4016 24.638 11.3763 24.8024C11.3511 24.9667 11.2937 25.1244 11.2075 25.2666C11.1213 25.4088 11.008 25.5325 10.8739 25.6309C10.7399 25.7292 10.5878 25.8002 10.4263 25.8398C10.2648 25.8794 10.0971 25.8867 9.9328 25.8615C9.76847 25.8363 9.61072 25.7789 9.46856 25.6927L2.673 21.5752C2.11423 21.2366 1.65227 20.7596 1.33182 20.1902C1.01137 19.6208 0.843259 18.9784 0.843751 18.3251V9.67325C0.843839 9.02047 1.01222 8.37874 1.33265 7.81002C1.65307 7.24129 2.11471 6.76479 2.673 6.4265L11.5324 1.05688Z" fill="black" stroke="black" stroke-width="0.00064"/>
<path fill-rule="evenodd" clip-rule="evenodd" d="M19.8264 12.8609L19.8281 12.7901V12.3074C19.8281 11.9718 19.6948 11.6499 19.4574 11.4125C19.2201 11.1752 18.8982 11.0418 18.5625 11.0418C18.2268 11.0418 17.9049 11.1752 17.6676 11.4125C17.4302 11.6499 17.2969 11.9718 17.2969 12.3074V12.7901L17.2986 12.8609C16.5048 13.0221 15.7496 13.3349 15.0744 13.7823C15.058 13.765 15.0412 13.7481 15.0238 13.7317L14.6846 13.3891C14.4447 13.1656 14.1274 13.0439 13.7995 13.0496C13.4716 13.0554 13.1588 13.1883 12.9269 13.4201C12.695 13.652 12.5622 13.9649 12.5564 14.2927C12.5506 14.6206 12.6723 14.938 12.8959 15.1779L13.2351 15.5204L13.2857 15.5677C12.8469 16.2326 12.5263 16.9852 12.3626 17.7935C12.3401 17.7924 12.3176 17.7919 12.2951 17.7918H11.8125C11.4768 17.7918 11.1549 17.9252 10.9176 18.1625C10.6802 18.3999 10.5469 18.7218 10.5469 19.0574C10.5469 19.3931 10.6802 19.715 10.9176 19.9524C11.1549 20.1897 11.4768 20.3231 11.8125 20.3231H12.2951L12.3592 20.3214C12.5229 21.1314 12.8419 21.884 13.2823 22.5489C13.2661 22.5636 13.2504 22.5788 13.2351 22.5944L12.8942 22.9353C12.6706 23.1752 12.5489 23.4926 12.5547 23.8204C12.5605 24.1483 12.6933 24.4612 12.9252 24.693C13.1571 24.9249 13.4699 25.0578 13.7978 25.0635C14.1257 25.0693 14.443 24.9476 14.6829 24.7241L15.0255 24.3832C15.0399 24.3689 15.054 24.3543 15.0677 24.3393C15.7343 24.7797 16.4886 25.0987 17.2986 25.2641L17.2969 25.3248V25.8074C17.2969 26.1431 17.4302 26.465 17.6676 26.7024C17.9049 26.9397 18.2268 27.0731 18.5625 27.0731C18.8982 27.0731 19.2201 26.9397 19.4574 26.7024C19.6948 26.465 19.8281 26.1431 19.8281 25.8074V25.3248V25.2641C20.6381 25.1004 21.3907 24.7797 22.0556 24.3393L22.0995 24.3832L22.4404 24.7257C22.6792 24.9562 22.9989 25.0836 23.3308 25.0806C23.6626 25.0775 23.98 24.9443 24.2146 24.7095C24.4491 24.4747 24.5821 24.1572 24.5848 23.8254C24.5875 23.4935 24.4598 23.1739 24.2291 22.9353L23.8899 22.5944C23.8746 22.5794 23.8589 22.5647 23.8427 22.5506C24.2831 21.884 24.6021 21.1297 24.7657 20.3214H25.3125C25.6482 20.3214 25.9701 20.188 26.2074 19.9507C26.4448 19.7133 26.5781 19.3914 26.5781 19.0557C26.5781 18.7201 26.4448 18.3982 26.2074 18.1608C25.9701 17.9235 25.6482 17.7901 25.3125 17.7901H24.8299L24.7624 17.7935C24.6007 16.9991 24.2873 16.2433 23.8393 15.5677L23.8899 15.5204L24.2308 15.1796C24.4615 14.941 24.5892 14.6213 24.5865 14.2895C24.5837 13.9576 24.4508 13.6401 24.2162 13.4054C23.9817 13.1706 23.6643 13.0373 23.3325 13.0343C23.0006 13.0313 22.6809 13.1587 22.4421 13.3891L22.0995 13.73L22.0506 13.7806C21.3752 13.3339 20.6201 13.0216 19.8264 12.8609ZM18.5625 15.2656C18.0637 15.265 17.5697 15.3627 17.1087 15.5533C16.6478 15.7439 16.2289 16.0235 15.8762 16.3762C15.5235 16.7289 15.2439 17.1477 15.0533 17.6087C14.8627 18.0697 14.765 18.5637 14.7656 19.0625C14.765 19.5613 14.8627 20.0553 15.0533 20.5163C15.2439 20.9772 15.5235 21.3961 15.8762 21.7488C16.2289 22.1015 16.6478 22.3811 17.1087 22.5717C17.5697 22.7623 18.0637 22.86 18.5625 22.8594C19.0613 22.86 19.5553 22.7623 20.0163 22.5717C20.4772 22.3811 20.8961 22.1015 21.2488 21.7488C21.6015 21.3961 21.8811 20.9772 22.0717 20.5163C22.2623 20.0553 22.36 19.5613 22.3594 19.0625C22.36 18.5637 22.2623 18.0697 22.0717 17.6087C21.8811 17.1477 21.6015 16.7289 21.2488 16.3762C20.8961 16.0235 20.4772 15.7439 20.0163 15.5533C19.5553 15.3627 19.0613 15.265 18.5625 15.2656Z" fill="black" stroke="black" stroke-width="0.00064"/>
</g>
<defs>
<clipPath id="clip0_76_432">
<rect width="27" height="27" fill="white" transform="translate(0 0.5)"/>
</clipPath>
</defs>
</svg>
