<svg width="31" height="31" viewBox="0 0 31 31" fill="none" xmlns="http://www.w3.org/2000/svg">
<path fill-rule="evenodd" clip-rule="evenodd" d="M18.4434 2.78002C17.9651 2.58337 17.3587 2.58337 16.1458 2.58337C14.933 2.58337 14.3265 2.58337 13.8482 2.78002C13.2104 3.04221 12.7037 3.54512 12.4395 4.1781C12.3189 4.46706 12.2717 4.8031 12.2532 5.29328C12.2261 6.01363 11.8538 6.6804 11.2248 7.04083C10.5958 7.40124 9.82782 7.38778 9.18567 7.05094C8.74869 6.82172 8.43186 6.69426 8.1194 6.65344C7.43495 6.56401 6.74273 6.74808 6.19504 7.16517C5.78426 7.47799 5.48104 7.9992 4.87462 9.04162C4.26819 10.084 3.96499 10.6052 3.89741 11.1147C3.80729 11.794 3.99277 12.481 4.41304 13.0246C4.60487 13.2727 4.87445 13.4812 5.29286 13.7421C5.90796 14.1257 6.30374 14.7792 6.3037 15.5C6.30367 16.2209 5.9079 16.8742 5.29286 17.2577C4.87439 17.5188 4.60475 17.7274 4.41291 17.9755C3.99264 18.5191 3.80717 19.206 3.89728 19.8853C3.96486 20.3947 4.26808 20.916 4.87449 21.9584C5.48091 23.0007 5.78413 23.5221 6.19491 23.8348C6.7426 24.2519 7.43482 24.4359 8.11927 24.3465C8.43171 24.3057 8.74852 24.1782 9.18546 23.9491C9.82767 23.6122 10.5957 23.5988 11.2247 23.9592C11.8538 24.3197 12.226 24.9864 12.2532 25.7069C12.2717 26.197 12.3189 26.5331 12.4395 26.822C12.7037 27.4549 13.2104 27.9579 13.8482 28.2201C14.3265 28.4167 14.933 28.4167 16.1458 28.4167C17.3587 28.4167 17.9651 28.4167 18.4434 28.2201C19.0813 27.9579 19.588 27.4549 19.8521 26.822C19.9728 26.5331 20.0201 26.197 20.0385 25.7068C20.0657 24.9864 20.4378 24.3197 21.0668 23.9592C21.6959 23.5987 22.4639 23.6122 23.1061 23.9491C23.5431 24.1782 23.8598 24.3056 24.1722 24.3464C24.8567 24.4359 25.5489 24.2519 26.0966 23.8348C26.5075 23.5219 26.8106 23.0008 27.417 21.9582C28.0235 20.9159 28.3266 20.3947 28.3943 19.8853C28.4843 19.206 28.2989 18.5189 27.8787 17.9754C27.6867 17.7273 27.4172 17.5187 26.9987 17.2577C26.3837 16.8742 25.9879 16.2208 25.9879 15.4999C25.9879 14.779 26.3837 14.1258 26.9987 13.7423C27.4173 13.4813 27.6869 13.2728 27.8788 13.0246C28.299 12.4811 28.4845 11.7941 28.3944 11.1148C28.3268 10.6053 28.0236 10.0841 27.4172 9.04171C26.8107 7.99929 26.5076 7.47808 26.0967 7.16526C25.549 6.74817 24.8568 6.5641 24.1724 6.65353C23.8599 6.69435 23.5431 6.8218 23.1062 7.05099C22.464 7.38784 21.696 7.40132 21.067 7.04086C20.4379 6.68042 20.0657 6.0136 20.0384 5.29321C20.0199 4.80308 19.9728 4.46705 19.8521 4.1781C19.588 3.54512 19.0813 3.04221 18.4434 2.78002ZM16.1458 19.375C18.3023 19.375 20.0503 17.6402 20.0503 15.5C20.0503 13.3599 18.3023 11.625 16.1458 11.625C13.9894 11.625 12.2413 13.3599 12.2413 15.5C12.2413 17.6402 13.9894 19.375 16.1458 19.375Z" fill="#9A9A9A"/>
</svg>
