<svg width="27" height="28" viewBox="0 0 27 28" fill="none" xmlns="http://www.w3.org/2000/svg">
<path d="M12.6776 5.46254C12.9381 4.87824 13.0683 4.58609 13.2497 4.49612C13.4072 4.41796 13.5921 4.41796 13.7496 4.49612C13.931 4.58609 14.0613 4.87824 14.3217 5.46254L16.3962 10.1166C16.4733 10.2893 16.5117 10.3757 16.5714 10.4418C16.624 10.5003 16.6885 10.5472 16.7604 10.5792C16.8417 10.6154 16.9357 10.6253 17.1238 10.6452L22.1912 11.18C22.8274 11.2472 23.1454 11.2807 23.287 11.4254C23.41 11.5511 23.4672 11.727 23.4415 11.901C23.412 12.1012 23.1744 12.3153 22.6992 12.7436L18.9139 16.1548C18.7735 16.2814 18.7032 16.3447 18.6588 16.4218C18.6194 16.4901 18.5948 16.5658 18.5866 16.6441C18.5772 16.7326 18.5968 16.8251 18.6361 17.0102L19.6933 21.9947C19.8261 22.6205 19.8925 22.9334 19.7986 23.1127C19.7171 23.2687 19.5675 23.3773 19.3941 23.4067C19.1945 23.4404 18.9174 23.2807 18.3633 22.9611L13.9493 20.4152C13.7855 20.3207 13.7036 20.2736 13.6165 20.255C13.5395 20.2387 13.4598 20.2387 13.3828 20.255C13.2957 20.2736 13.2138 20.3207 13.05 20.4152L8.63608 22.9611C8.08192 23.2807 7.80485 23.4404 7.60526 23.4067C7.43189 23.3773 7.28222 23.2687 7.20072 23.1127C7.10691 22.9334 7.17327 22.6205 7.30601 21.9947L8.36324 17.0102C8.40248 16.8251 8.4221 16.7326 8.41279 16.6441C8.40454 16.5658 8.37994 16.4901 8.34056 16.4218C8.29607 16.3447 8.22582 16.2814 8.08534 16.1548L4.30015 12.7436C3.82493 12.3153 3.58732 12.1012 3.55778 11.901C3.53213 11.727 3.58929 11.5511 3.7123 11.4254C3.85391 11.2807 4.17201 11.2472 4.8082 11.18L9.87552 10.6452C10.0636 10.6253 10.1576 10.6154 10.2389 10.5792C10.3109 10.5472 10.3753 10.5003 10.428 10.4418C10.4876 10.3757 10.5261 10.2893 10.6031 10.1166L12.6776 5.46254Z" fill="#FEBF08" fill-opacity="0.99" stroke="#FEBF08" stroke-width="1.5" stroke-linecap="round" stroke-linejoin="round"/>
</svg>
